<mxfile host="app.diagrams.net" agent="Mozilla/5.0 (Windows NT 10.0; Win64; x64) AppleWebKit/537.36 (KHTML, like Gecko) Chrome/136.0.0.0 Safari/537.36 Edg/136.0.0.0" version="27.0.9" pages="2">
  <diagram id="QU1VG3sRyyTv4m1DJWj3" name="Diagrama_Descrito">
    <mxGraphModel dx="985" dy="575" grid="1" gridSize="10" guides="1" tooltips="1" connect="1" arrows="1" fold="1" page="1" pageScale="1" pageWidth="827" pageHeight="1169" math="0" shadow="0">
      <root>
        <mxCell id="0" />
        <mxCell id="1" parent="0" />
        <mxCell id="CMSNJL8uuIETDpdzAiZ_-67" value="" style="rounded=0;whiteSpace=wrap;html=1;fillColor=none;dashed=1;" parent="1" vertex="1">
          <mxGeometry x="370" y="1030" width="790" height="640" as="geometry" />
        </mxCell>
        <mxCell id="CMSNJL8uuIETDpdzAiZ_-71" value="" style="rounded=0;whiteSpace=wrap;html=1;fillColor=none;dashed=1;" parent="1" vertex="1">
          <mxGeometry x="1210" y="1508" width="540" height="510" as="geometry" />
        </mxCell>
        <mxCell id="CMSNJL8uuIETDpdzAiZ_-69" value="" style="rounded=0;whiteSpace=wrap;html=1;fillColor=none;dashed=1;" parent="1" vertex="1">
          <mxGeometry x="1170" y="1030" width="1150" height="240" as="geometry" />
        </mxCell>
        <mxCell id="CMSNJL8uuIETDpdzAiZ_-65" value="" style="rounded=0;whiteSpace=wrap;html=1;fillColor=none;dashed=1;" parent="1" vertex="1">
          <mxGeometry x="521.5" y="640" width="1380" height="290" as="geometry" />
        </mxCell>
        <mxCell id="CMSNJL8uuIETDpdzAiZ_-63" value="" style="rounded=0;whiteSpace=wrap;html=1;fillColor=none;dashed=1;" parent="1" vertex="1">
          <mxGeometry x="560" y="350" width="1380" height="230" as="geometry" />
        </mxCell>
        <mxCell id="CMSNJL8uuIETDpdzAiZ_-1" value="Bombona" style="rounded=0;whiteSpace=wrap;html=1;" parent="1" vertex="1">
          <mxGeometry x="1225" y="1528" width="275" height="60" as="geometry" />
        </mxCell>
        <mxCell id="CMSNJL8uuIETDpdzAiZ_-2" value="- codigo: String&lt;div&gt;- volume: double&lt;/div&gt;&lt;div&gt;- tipoResiduo: String&lt;/div&gt;&lt;div&gt;- responsavel: Responsavel&lt;/div&gt;" style="rounded=0;whiteSpace=wrap;html=1;align=left;labelPosition=center;verticalLabelPosition=middle;verticalAlign=middle;" parent="1" vertex="1">
          <mxGeometry x="1225" y="1588" width="275" height="70" as="geometry" />
        </mxCell>
        <mxCell id="CMSNJL8uuIETDpdzAiZ_-3" value="+ getCodigo(): String&lt;div&gt;+ getVolume(): double&lt;/div&gt;&lt;div&gt;+ getTipoResiduo(): String&lt;/div&gt;&lt;div&gt;+ getResponsavel(): Responsavel&lt;/div&gt;&lt;div&gt;+ setCodigo(novoCod: String): void&lt;div&gt;+ setVolume(novoVol: double): void&lt;/div&gt;&lt;div&gt;+ setTipoResiduo(novoTipo: String): void&lt;/div&gt;&lt;/div&gt;&lt;div&gt;+ setResponsavel(novoResp: Responsavel): void&lt;/div&gt;" style="rounded=0;whiteSpace=wrap;html=1;align=left;" parent="1" vertex="1">
          <mxGeometry x="1225" y="1658" width="275" height="145" as="geometry" />
        </mxCell>
        <mxCell id="CMSNJL8uuIETDpdzAiZ_-4" value="Responsavel" style="rounded=0;whiteSpace=wrap;html=1;" parent="1" vertex="1">
          <mxGeometry x="1525" y="1713" width="215" height="60" as="geometry" />
        </mxCell>
        <mxCell id="CMSNJL8uuIETDpdzAiZ_-5" value="- cpf: String&lt;div&gt;- nome: String&lt;/div&gt;&lt;div&gt;- telefone: String&lt;/div&gt;&lt;div&gt;- setor: String&lt;/div&gt;" style="rounded=0;whiteSpace=wrap;html=1;align=left;labelPosition=center;verticalLabelPosition=middle;verticalAlign=middle;" parent="1" vertex="1">
          <mxGeometry x="1525" y="1773" width="215" height="70" as="geometry" />
        </mxCell>
        <mxCell id="CMSNJL8uuIETDpdzAiZ_-6" value="+ getCPF(): String&lt;div&gt;+ getNome(): String&lt;/div&gt;&lt;div&gt;+ getTelefone(): String&lt;/div&gt;&lt;div&gt;+ getSetor(): String&lt;/div&gt;&lt;div&gt;+ setCPF(novoCPF: String): void&lt;div&gt;+ setNome(novoNome: String): void&lt;/div&gt;&lt;div&gt;+ setTelefone(novoTel: String): void&lt;/div&gt;&lt;div&gt;+ setSetor(novoSetor: String): void&lt;/div&gt;&lt;/div&gt;" style="rounded=0;whiteSpace=wrap;html=1;align=left;" parent="1" vertex="1">
          <mxGeometry x="1525" y="1843" width="215" height="150" as="geometry" />
        </mxCell>
        <mxCell id="CMSNJL8uuIETDpdzAiZ_-7" style="edgeStyle=orthogonalEdgeStyle;rounded=0;orthogonalLoop=1;jettySize=auto;html=1;entryX=0.5;entryY=1;entryDx=0;entryDy=0;endArrow=block;endFill=0;dashed=1;dashPattern=8 8;" parent="1" source="CMSNJL8uuIETDpdzAiZ_-8" target="CMSNJL8uuIETDpdzAiZ_-53" edge="1">
          <mxGeometry relative="1" as="geometry" />
        </mxCell>
        <mxCell id="CMSNJL8uuIETDpdzAiZ_-8" value="BombonaDAO" style="rounded=0;whiteSpace=wrap;html=1;" parent="1" vertex="1">
          <mxGeometry x="671" y="1410" width="330" height="60" as="geometry" />
        </mxCell>
        <mxCell id="CMSNJL8uuIETDpdzAiZ_-9" value="- bombonas: List&amp;lt;Bombona&amp;gt;" style="rounded=0;whiteSpace=wrap;html=1;align=left;labelPosition=center;verticalLabelPosition=middle;verticalAlign=middle;" parent="1" vertex="1">
          <mxGeometry x="671" y="1470" width="330" height="35" as="geometry" />
        </mxCell>
        <mxCell id="CMSNJL8uuIETDpdzAiZ_-10" style="rounded=0;orthogonalLoop=1;jettySize=auto;html=1;edgeStyle=orthogonalEdgeStyle;endArrow=none;endFill=0;strokeWidth=1;targetPerimeterSpacing=0;entryX=0.005;entryY=0.357;entryDx=0;entryDy=0;startArrow=diamond;startFill=0;entryPerimeter=0;" parent="1" source="CMSNJL8uuIETDpdzAiZ_-11" target="CMSNJL8uuIETDpdzAiZ_-3" edge="1">
          <mxGeometry relative="1" as="geometry">
            <mxPoint x="1160" y="1650" as="targetPoint" />
            <Array as="points">
              <mxPoint x="836" y="1710" />
            </Array>
          </mxGeometry>
        </mxCell>
        <mxCell id="CMSNJL8uuIETDpdzAiZ_-11" value="+ salvar(b: Bombona): void&lt;div&gt;+ listarTodas(): List&amp;lt;Bombona&amp;gt;&lt;/div&gt;&lt;div&gt;+ buscarPorCodigo(codigo: String): Bombona&lt;/div&gt;&lt;div&gt;+ buscarPorResponsavel(cpf: String): List&amp;lt;Bombona&amp;gt;&lt;/div&gt;&lt;div&gt;+ remover(b: Bombona): void&lt;/div&gt;&lt;div&gt;+ atualizar(b: Bombona): void&lt;/div&gt;&lt;div&gt;+ existeCodigo(codigo: String): boolean&lt;/div&gt;" style="rounded=0;whiteSpace=wrap;html=1;align=left;" parent="1" vertex="1">
          <mxGeometry x="671" y="1505" width="330" height="120" as="geometry" />
        </mxCell>
        <mxCell id="CMSNJL8uuIETDpdzAiZ_-12" style="edgeStyle=orthogonalEdgeStyle;rounded=0;orthogonalLoop=1;jettySize=auto;html=1;entryX=0.5;entryY=1;entryDx=0;entryDy=0;endArrow=block;endFill=0;dashed=1;dashPattern=8 8;" parent="1" source="CMSNJL8uuIETDpdzAiZ_-13" target="CMSNJL8uuIETDpdzAiZ_-57" edge="1">
          <mxGeometry relative="1" as="geometry" />
        </mxCell>
        <mxCell id="CMSNJL8uuIETDpdzAiZ_-13" value="ResponsavelDAO" style="rounded=0;whiteSpace=wrap;html=1;" parent="1" vertex="1">
          <mxGeometry x="390" y="1410" width="260" height="60" as="geometry" />
        </mxCell>
        <mxCell id="CMSNJL8uuIETDpdzAiZ_-14" value="- responsaveis: List&amp;lt;Responsavel&amp;gt;" style="rounded=0;whiteSpace=wrap;html=1;align=left;labelPosition=center;verticalLabelPosition=middle;verticalAlign=middle;" parent="1" vertex="1">
          <mxGeometry x="390" y="1470" width="260" height="35" as="geometry" />
        </mxCell>
        <mxCell id="CMSNJL8uuIETDpdzAiZ_-15" style="edgeStyle=orthogonalEdgeStyle;rounded=0;orthogonalLoop=1;jettySize=auto;html=1;endArrow=none;endFill=0;startArrow=diamond;startFill=0;entryX=-0.002;entryY=0.121;entryDx=0;entryDy=0;entryPerimeter=0;" parent="1" source="CMSNJL8uuIETDpdzAiZ_-16" target="CMSNJL8uuIETDpdzAiZ_-6" edge="1">
          <mxGeometry relative="1" as="geometry">
            <mxPoint x="1520" y="1950" as="targetPoint" />
            <Array as="points">
              <mxPoint x="520" y="1860" />
              <mxPoint x="1525" y="1860" />
            </Array>
          </mxGeometry>
        </mxCell>
        <mxCell id="CMSNJL8uuIETDpdzAiZ_-16" value="+ salvar(b: Responsavel): void&lt;div&gt;+ listarTodos(): List&amp;lt;Responsavel&amp;gt;&lt;/div&gt;&lt;div&gt;+ buscarPorCPF(cpf: String): Responsavel&lt;/div&gt;&lt;div&gt;+ remover(r: Responsavel): void&lt;/div&gt;&lt;div&gt;+ atualizar(r: Responsavel): void&lt;/div&gt;&lt;div&gt;+ existeCPF(cpf: String): boolean&lt;/div&gt;" style="rounded=0;whiteSpace=wrap;html=1;align=left;" parent="1" vertex="1">
          <mxGeometry x="390" y="1505" width="260" height="110" as="geometry" />
        </mxCell>
        <mxCell id="CMSNJL8uuIETDpdzAiZ_-17" style="edgeStyle=orthogonalEdgeStyle;rounded=0;orthogonalLoop=1;jettySize=auto;html=1;entryX=0.75;entryY=1;entryDx=0;entryDy=0;endArrow=diamond;endFill=1;" parent="1" source="CMSNJL8uuIETDpdzAiZ_-18" target="CMSNJL8uuIETDpdzAiZ_-29" edge="1">
          <mxGeometry relative="1" as="geometry">
            <Array as="points">
              <mxPoint x="1470" y="990" />
              <mxPoint x="1055" y="990" />
            </Array>
          </mxGeometry>
        </mxCell>
        <mxCell id="CMSNJL8uuIETDpdzAiZ_-18" value="BombonaFactory" style="rounded=0;whiteSpace=wrap;html=1;" parent="1" vertex="1">
          <mxGeometry x="1180" y="1060" width="580" height="60" as="geometry" />
        </mxCell>
        <mxCell id="CMSNJL8uuIETDpdzAiZ_-19" value="" style="rounded=0;whiteSpace=wrap;html=1;align=left;labelPosition=center;verticalLabelPosition=middle;verticalAlign=middle;" parent="1" vertex="1">
          <mxGeometry x="1180" y="1120" width="580" height="10" as="geometry" />
        </mxCell>
        <mxCell id="CMSNJL8uuIETDpdzAiZ_-20" style="edgeStyle=orthogonalEdgeStyle;rounded=0;orthogonalLoop=1;jettySize=auto;html=1;entryX=0.5;entryY=0;entryDx=0;entryDy=0;dashed=1;endArrow=block;endFill=1;dashPattern=8 8;" parent="1" source="CMSNJL8uuIETDpdzAiZ_-21" target="CMSNJL8uuIETDpdzAiZ_-1" edge="1">
          <mxGeometry relative="1" as="geometry">
            <Array as="points">
              <mxPoint x="1470" y="1350" />
              <mxPoint x="1363" y="1350" />
              <mxPoint x="1363" y="1528" />
            </Array>
          </mxGeometry>
        </mxCell>
        <mxCell id="CMSNJL8uuIETDpdzAiZ_-21" value="+ criarBombona(codigo: String, volume: double, tipoResiduo: String, responsavel: Responsavel): Bombona&lt;div&gt;- validarCodigo(codigo: String): boolean&lt;/div&gt;&lt;div&gt;- validarVolume(volume: double): boolean&lt;/div&gt;&lt;div&gt;- validarTipoResiduo(tipoResiduo: String): boolean&lt;/div&gt;" style="rounded=0;whiteSpace=wrap;html=1;align=left;" parent="1" vertex="1">
          <mxGeometry x="1180" y="1130" width="580" height="100" as="geometry" />
        </mxCell>
        <mxCell id="CMSNJL8uuIETDpdzAiZ_-22" style="edgeStyle=orthogonalEdgeStyle;rounded=0;orthogonalLoop=1;jettySize=auto;html=1;entryX=1;entryY=0.25;entryDx=0;entryDy=0;endArrow=diamond;endFill=1;" parent="1" source="CMSNJL8uuIETDpdzAiZ_-23" target="CMSNJL8uuIETDpdzAiZ_-32" edge="1">
          <mxGeometry relative="1" as="geometry" />
        </mxCell>
        <mxCell id="CMSNJL8uuIETDpdzAiZ_-23" value="ResponsavelFactory" style="rounded=0;whiteSpace=wrap;html=1;" parent="1" vertex="1">
          <mxGeometry x="1810" y="1060" width="480" height="60" as="geometry" />
        </mxCell>
        <mxCell id="CMSNJL8uuIETDpdzAiZ_-24" value="" style="rounded=0;whiteSpace=wrap;html=1;align=left;labelPosition=center;verticalLabelPosition=middle;verticalAlign=middle;" parent="1" vertex="1">
          <mxGeometry x="1810" y="1120" width="480" height="10" as="geometry" />
        </mxCell>
        <mxCell id="CMSNJL8uuIETDpdzAiZ_-25" style="edgeStyle=orthogonalEdgeStyle;rounded=0;orthogonalLoop=1;jettySize=auto;html=1;entryX=0.5;entryY=0;entryDx=0;entryDy=0;dashed=1;dashPattern=8 8;endArrow=block;endFill=1;" parent="1" source="CMSNJL8uuIETDpdzAiZ_-26" target="CMSNJL8uuIETDpdzAiZ_-4" edge="1">
          <mxGeometry relative="1" as="geometry">
            <Array as="points">
              <mxPoint x="2050" y="1430" />
              <mxPoint x="1633" y="1430" />
              <mxPoint x="1633" y="1713" />
            </Array>
          </mxGeometry>
        </mxCell>
        <mxCell id="CMSNJL8uuIETDpdzAiZ_-26" value="+ criarResponsavel(cpf: String, nome: String, telefone: String, setor: String): Responsavel&lt;div&gt;- validarEFormatarCPF(cpf: String): String&lt;br&gt;&lt;/div&gt;&lt;div&gt;- validarNome(nome: String): boolean&lt;/div&gt;&lt;div&gt;- validarTelefone(nome: String): boolean&lt;/div&gt;&lt;div&gt;- validarSetor(setor: String): boolean&lt;/div&gt;" style="rounded=0;whiteSpace=wrap;html=1;align=left;" parent="1" vertex="1">
          <mxGeometry x="1810" y="1130" width="480" height="110" as="geometry" />
        </mxCell>
        <mxCell id="CMSNJL8uuIETDpdzAiZ_-27" value="BombonaController" style="rounded=0;whiteSpace=wrap;html=1;" parent="1" vertex="1">
          <mxGeometry x="560" y="660" width="660" height="60" as="geometry" />
        </mxCell>
        <mxCell id="CMSNJL8uuIETDpdzAiZ_-28" value="- bombonaDAOI: BombonaDAOInterface&lt;div&gt;- bombonaFactory: BombonaFactory&lt;/div&gt;&lt;div&gt;- responsavelDAOI: ResponsavelDAOInterface&lt;/div&gt;" style="rounded=0;whiteSpace=wrap;html=1;align=left;labelPosition=center;verticalLabelPosition=middle;verticalAlign=middle;" parent="1" vertex="1">
          <mxGeometry x="560" y="720" width="660" height="50" as="geometry" />
        </mxCell>
        <mxCell id="CMSNJL8uuIETDpdzAiZ_-29" value="+ cadastrarBombona(codigo: String, volume: double, tipoResiduo: String, cpf: String): boolean&lt;div&gt;- validarEFormatarCPF(cpf: String): String&lt;br&gt;&lt;div&gt;+ listarBombonas(): List&amp;lt;Bombona&amp;gt;&lt;/div&gt;&lt;div&gt;+ removerBombona(codigo: String): boolean&lt;/div&gt;&lt;div&gt;+ editarBombona(codigo: String, novoVolume: double, novoTipoResiduo: String, cpfResponsavel: String): boolean&lt;/div&gt;&lt;div&gt;+ gerarRelatorio(): Arquivo&lt;/div&gt;&lt;div&gt;+ buscarBombonasPorCPFResponsavel(cpf: String): List&amp;lt;Bombona&amp;gt;&lt;/div&gt;&lt;/div&gt;" style="rounded=0;whiteSpace=wrap;html=1;align=left;" parent="1" vertex="1">
          <mxGeometry x="560" y="770" width="660" height="130" as="geometry" />
        </mxCell>
        <mxCell id="CMSNJL8uuIETDpdzAiZ_-30" value="ResponsavelController" style="rounded=0;whiteSpace=wrap;html=1;" parent="1" vertex="1">
          <mxGeometry x="1280" y="660" width="580" height="60" as="geometry" />
        </mxCell>
        <mxCell id="CMSNJL8uuIETDpdzAiZ_-31" value="- responsavelDAOI: ResponsavelDAOInterface&lt;div&gt;- responsavelFactory: ResponsavelFactory&lt;/div&gt;&lt;div&gt;- bombonaDAOI: BombonaDAOInterface&lt;/div&gt;" style="rounded=0;whiteSpace=wrap;html=1;align=left;labelPosition=center;verticalLabelPosition=middle;verticalAlign=middle;" parent="1" vertex="1">
          <mxGeometry x="1280" y="720" width="580" height="60" as="geometry" />
        </mxCell>
        <mxCell id="CMSNJL8uuIETDpdzAiZ_-32" value="+ cadastrarResponsavel(cpf: String, nome: String, telefone: String, setor: String): boolean&lt;div&gt;+ listarResponsaveis(): List&amp;lt;Responsavel&amp;gt;&lt;/div&gt;&lt;div&gt;+ removerResponsavel(cpf: String): boolean&lt;/div&gt;&lt;div&gt;+ editarResponsavel(cpf: String, novoNome: String, novoTelefone: String, novoSetor: String): boolean&lt;/div&gt;&lt;div&gt;+ buscarResponsavel(cpf: String): Responsavel&lt;/div&gt;" style="rounded=0;whiteSpace=wrap;html=1;align=left;" parent="1" vertex="1">
          <mxGeometry x="1280" y="780" width="580" height="100" as="geometry" />
        </mxCell>
        <mxCell id="CMSNJL8uuIETDpdzAiZ_-33" value="TelaRelatorio" style="rounded=0;whiteSpace=wrap;html=1;" parent="1" vertex="1">
          <mxGeometry x="612" y="370" width="213" height="60" as="geometry" />
        </mxCell>
        <mxCell id="CMSNJL8uuIETDpdzAiZ_-34" value="- controller: BombonaController" style="rounded=0;whiteSpace=wrap;html=1;align=left;labelPosition=center;verticalLabelPosition=middle;verticalAlign=middle;" parent="1" vertex="1">
          <mxGeometry x="612" y="430" width="213" height="40" as="geometry" />
        </mxCell>
        <mxCell id="CMSNJL8uuIETDpdzAiZ_-35" style="edgeStyle=orthogonalEdgeStyle;rounded=0;orthogonalLoop=1;jettySize=auto;html=1;entryX=0.5;entryY=0;entryDx=0;entryDy=0;dashed=1;endArrow=block;endFill=1;dashPattern=8 8;" parent="1" source="CMSNJL8uuIETDpdzAiZ_-36" target="CMSNJL8uuIETDpdzAiZ_-27" edge="1">
          <mxGeometry relative="1" as="geometry" />
        </mxCell>
        <mxCell id="CMSNJL8uuIETDpdzAiZ_-36" value="+ exibirTela(): void&lt;div&gt;- gerarRelatorioCSV(): void&lt;/div&gt;&lt;div&gt;- gerarRelatorioPDF(): void&lt;/div&gt;" style="rounded=0;whiteSpace=wrap;html=1;align=left;" parent="1" vertex="1">
          <mxGeometry x="612" y="470" width="213" height="70" as="geometry" />
        </mxCell>
        <mxCell id="CMSNJL8uuIETDpdzAiZ_-37" value="TelaListagemBombonas" style="rounded=0;whiteSpace=wrap;html=1;" parent="1" vertex="1">
          <mxGeometry x="855" y="370" width="225" height="60" as="geometry" />
        </mxCell>
        <mxCell id="CMSNJL8uuIETDpdzAiZ_-38" value="- controller: BombonaController" style="rounded=0;whiteSpace=wrap;html=1;align=left;labelPosition=center;verticalLabelPosition=middle;verticalAlign=middle;" parent="1" vertex="1">
          <mxGeometry x="855" y="430" width="225" height="40" as="geometry" />
        </mxCell>
        <mxCell id="CMSNJL8uuIETDpdzAiZ_-39" value="+ exibirLista(): void&lt;div&gt;- editarBombona(codigo: String): void&lt;br&gt;&lt;div&gt;- excluirBombona(codigo: String): void&lt;/div&gt;&lt;/div&gt;" style="rounded=0;whiteSpace=wrap;html=1;align=left;" parent="1" vertex="1">
          <mxGeometry x="855" y="470" width="225" height="70" as="geometry" />
        </mxCell>
        <mxCell id="CMSNJL8uuIETDpdzAiZ_-40" value="TelaCadastroBombona" style="rounded=0;whiteSpace=wrap;html=1;" parent="1" vertex="1">
          <mxGeometry x="1105" y="370" width="213" height="60" as="geometry" />
        </mxCell>
        <mxCell id="CMSNJL8uuIETDpdzAiZ_-41" value="- controller: BombonaController" style="rounded=0;whiteSpace=wrap;html=1;align=left;labelPosition=center;verticalLabelPosition=middle;verticalAlign=middle;" parent="1" vertex="1">
          <mxGeometry x="1105" y="430" width="213" height="40" as="geometry" />
        </mxCell>
        <mxCell id="CMSNJL8uuIETDpdzAiZ_-42" style="edgeStyle=orthogonalEdgeStyle;rounded=0;orthogonalLoop=1;jettySize=auto;html=1;entryX=0.75;entryY=0;entryDx=0;entryDy=0;dashed=1;endArrow=block;endFill=1;dashPattern=8 8;" parent="1" source="CMSNJL8uuIETDpdzAiZ_-43" target="CMSNJL8uuIETDpdzAiZ_-27" edge="1">
          <mxGeometry relative="1" as="geometry">
            <Array as="points">
              <mxPoint x="1212" y="600" />
              <mxPoint x="1055" y="600" />
            </Array>
          </mxGeometry>
        </mxCell>
        <mxCell id="CMSNJL8uuIETDpdzAiZ_-43" value="+ exibirFormulario(): void&lt;div&gt;- cadastrarBombona(): void&lt;/div&gt;" style="rounded=0;whiteSpace=wrap;html=1;align=left;" parent="1" vertex="1">
          <mxGeometry x="1105" y="470" width="213" height="60" as="geometry" />
        </mxCell>
        <mxCell id="CMSNJL8uuIETDpdzAiZ_-44" value="TelaCadastroResponsavel" style="rounded=0;whiteSpace=wrap;html=1;" parent="1" vertex="1">
          <mxGeometry x="1353.5" y="370" width="213" height="60" as="geometry" />
        </mxCell>
        <mxCell id="CMSNJL8uuIETDpdzAiZ_-45" value="- controller: ResponsavelController" style="rounded=0;whiteSpace=wrap;html=1;align=left;labelPosition=center;verticalLabelPosition=middle;verticalAlign=middle;" parent="1" vertex="1">
          <mxGeometry x="1353.5" y="430" width="213" height="40" as="geometry" />
        </mxCell>
        <mxCell id="CMSNJL8uuIETDpdzAiZ_-46" value="+ exibirFormulario(): void&lt;div&gt;- cadastrarResponsavel(): void&lt;/div&gt;" style="rounded=0;whiteSpace=wrap;html=1;align=left;" parent="1" vertex="1">
          <mxGeometry x="1353.5" y="470" width="213" height="60" as="geometry" />
        </mxCell>
        <mxCell id="CMSNJL8uuIETDpdzAiZ_-47" value="TelaListagemResponsaveis" style="rounded=0;whiteSpace=wrap;html=1;" parent="1" vertex="1">
          <mxGeometry x="1605" y="370" width="225" height="60" as="geometry" />
        </mxCell>
        <mxCell id="CMSNJL8uuIETDpdzAiZ_-48" value="- controller: ResponsavelController" style="rounded=0;whiteSpace=wrap;html=1;align=left;labelPosition=center;verticalLabelPosition=middle;verticalAlign=middle;" parent="1" vertex="1">
          <mxGeometry x="1605" y="430" width="225" height="40" as="geometry" />
        </mxCell>
        <mxCell id="CMSNJL8uuIETDpdzAiZ_-49" style="edgeStyle=orthogonalEdgeStyle;rounded=0;orthogonalLoop=1;jettySize=auto;html=1;dashed=1;endArrow=block;endFill=1;dashPattern=8 8;" parent="1" source="CMSNJL8uuIETDpdzAiZ_-50" target="CMSNJL8uuIETDpdzAiZ_-30" edge="1">
          <mxGeometry relative="1" as="geometry" />
        </mxCell>
        <mxCell id="CMSNJL8uuIETDpdzAiZ_-50" value="+ exibirLista(): void&lt;div&gt;- editarResponsavel(cpf: String): void&lt;br&gt;&lt;div&gt;- excluirResponsavel(cpf: String): void&lt;/div&gt;&lt;/div&gt;" style="rounded=0;whiteSpace=wrap;html=1;align=left;" parent="1" vertex="1">
          <mxGeometry x="1605" y="470" width="225" height="70" as="geometry" />
        </mxCell>
        <mxCell id="CMSNJL8uuIETDpdzAiZ_-51" value="BombonaDAOInterface" style="rounded=0;whiteSpace=wrap;html=1;" parent="1" vertex="1">
          <mxGeometry x="821" y="1060" width="330" height="60" as="geometry" />
        </mxCell>
        <mxCell id="CMSNJL8uuIETDpdzAiZ_-52" value="" style="rounded=0;whiteSpace=wrap;html=1;align=left;labelPosition=center;verticalLabelPosition=middle;verticalAlign=middle;" parent="1" vertex="1">
          <mxGeometry x="821" y="1120" width="330" height="10" as="geometry" />
        </mxCell>
        <mxCell id="CMSNJL8uuIETDpdzAiZ_-53" value="+ salvar(b: Bombona): void&lt;div&gt;+ listarTodas(): List&amp;lt;Bombona&amp;gt;&lt;/div&gt;&lt;div&gt;+ buscarPorCodigo(codigo: String): Bombona&lt;/div&gt;&lt;div&gt;+ buscarPorResponsavel(cpf: String): List&amp;lt;Bombona&amp;gt;&lt;/div&gt;&lt;div&gt;+ remover(b: Bombona): void&lt;/div&gt;&lt;div&gt;+ atualizar(b: Bombona): void&lt;/div&gt;&lt;div&gt;+ existeCodigo(codigo: String): boolean&lt;/div&gt;" style="rounded=0;whiteSpace=wrap;html=1;align=left;" parent="1" vertex="1">
          <mxGeometry x="821" y="1130" width="330" height="120" as="geometry" />
        </mxCell>
        <mxCell id="CMSNJL8uuIETDpdzAiZ_-54" style="edgeStyle=orthogonalEdgeStyle;rounded=0;orthogonalLoop=1;jettySize=auto;html=1;entryX=0.25;entryY=1;entryDx=0;entryDy=0;endArrow=diamond;endFill=1;" parent="1" source="CMSNJL8uuIETDpdzAiZ_-55" target="CMSNJL8uuIETDpdzAiZ_-29" edge="1">
          <mxGeometry relative="1" as="geometry">
            <Array as="points">
              <mxPoint x="610" y="950" />
              <mxPoint x="725" y="950" />
            </Array>
          </mxGeometry>
        </mxCell>
        <mxCell id="CMSNJL8uuIETDpdzAiZ_-55" value="ResponsavelDAOInterface" style="rounded=0;whiteSpace=wrap;html=1;" parent="1" vertex="1">
          <mxGeometry x="540" y="1060" width="260" height="60" as="geometry" />
        </mxCell>
        <mxCell id="CMSNJL8uuIETDpdzAiZ_-56" value="" style="rounded=0;whiteSpace=wrap;html=1;align=left;labelPosition=center;verticalLabelPosition=middle;verticalAlign=middle;" parent="1" vertex="1">
          <mxGeometry x="540" y="1120" width="260" height="10" as="geometry" />
        </mxCell>
        <mxCell id="CMSNJL8uuIETDpdzAiZ_-57" value="+ salvar(b: Responsavel): void&lt;div&gt;+ listarTodos(): List&amp;lt;Responsavel&amp;gt;&lt;/div&gt;&lt;div&gt;+ buscarPorCPF(cpf: String): Responsavel&lt;/div&gt;&lt;div&gt;+ remover(r: Responsavel): void&lt;/div&gt;&lt;div&gt;+ atualizar(r: Responsavel): void&lt;/div&gt;&lt;div&gt;+ existeCPF(cpf: String): boolean&lt;/div&gt;" style="rounded=0;whiteSpace=wrap;html=1;align=left;" parent="1" vertex="1">
          <mxGeometry x="540" y="1130" width="260" height="110" as="geometry" />
        </mxCell>
        <mxCell id="CMSNJL8uuIETDpdzAiZ_-58" style="edgeStyle=orthogonalEdgeStyle;rounded=0;orthogonalLoop=1;jettySize=auto;html=1;dashed=1;endArrow=block;endFill=1;entryX=0.587;entryY=0.006;entryDx=0;entryDy=0;entryPerimeter=0;dashPattern=8 8;" parent="1" source="CMSNJL8uuIETDpdzAiZ_-39" target="CMSNJL8uuIETDpdzAiZ_-27" edge="1">
          <mxGeometry relative="1" as="geometry">
            <mxPoint x="890" y="640" as="targetPoint" />
          </mxGeometry>
        </mxCell>
        <mxCell id="CMSNJL8uuIETDpdzAiZ_-59" style="edgeStyle=orthogonalEdgeStyle;rounded=0;orthogonalLoop=1;jettySize=auto;html=1;dashed=1;endArrow=block;endFill=1;exitX=0.5;exitY=1;exitDx=0;exitDy=0;dashPattern=8 8;" parent="1" source="CMSNJL8uuIETDpdzAiZ_-46" edge="1">
          <mxGeometry relative="1" as="geometry">
            <mxPoint x="1460" y="510" as="sourcePoint" />
            <mxPoint x="1540" y="660" as="targetPoint" />
            <Array as="points">
              <mxPoint x="1460" y="600" />
              <mxPoint x="1540" y="600" />
            </Array>
          </mxGeometry>
        </mxCell>
        <mxCell id="CMSNJL8uuIETDpdzAiZ_-60" style="edgeStyle=orthogonalEdgeStyle;rounded=0;orthogonalLoop=1;jettySize=auto;html=1;endArrow=diamond;endFill=1;" parent="1" source="CMSNJL8uuIETDpdzAiZ_-51" edge="1">
          <mxGeometry relative="1" as="geometry">
            <mxPoint x="1525" y="880" as="targetPoint" />
            <Array as="points">
              <mxPoint x="986" y="1010" />
              <mxPoint x="1525" y="1010" />
            </Array>
          </mxGeometry>
        </mxCell>
        <mxCell id="CMSNJL8uuIETDpdzAiZ_-61" style="edgeStyle=orthogonalEdgeStyle;rounded=0;orthogonalLoop=1;jettySize=auto;html=1;entryX=0.633;entryY=1.007;entryDx=0;entryDy=0;entryPerimeter=0;endArrow=diamond;endFill=1;" parent="1" source="CMSNJL8uuIETDpdzAiZ_-55" target="CMSNJL8uuIETDpdzAiZ_-32" edge="1">
          <mxGeometry relative="1" as="geometry">
            <Array as="points">
              <mxPoint x="670" y="970" />
              <mxPoint x="1647" y="970" />
            </Array>
          </mxGeometry>
        </mxCell>
        <mxCell id="CMSNJL8uuIETDpdzAiZ_-62" style="edgeStyle=orthogonalEdgeStyle;rounded=0;orthogonalLoop=1;jettySize=auto;html=1;endArrow=diamond;endFill=1;entryX=0.5;entryY=1;entryDx=0;entryDy=0;" parent="1" source="CMSNJL8uuIETDpdzAiZ_-51" target="CMSNJL8uuIETDpdzAiZ_-29" edge="1">
          <mxGeometry relative="1" as="geometry">
            <mxPoint x="870" y="920" as="targetPoint" />
            <Array as="points">
              <mxPoint x="940" y="990" />
              <mxPoint x="890" y="990" />
            </Array>
          </mxGeometry>
        </mxCell>
        <mxCell id="CMSNJL8uuIETDpdzAiZ_-64" value="View" style="rounded=0;whiteSpace=wrap;html=1;fontSize=17;fontStyle=1;fillColor=#d5e8d4;strokeColor=#82b366;" parent="1" vertex="1">
          <mxGeometry x="560" y="310" width="170" height="40" as="geometry" />
        </mxCell>
        <mxCell id="CMSNJL8uuIETDpdzAiZ_-66" value="Controller" style="rounded=0;whiteSpace=wrap;html=1;fontSize=17;fontStyle=1;fillColor=#d5e8d4;strokeColor=#82b366;" parent="1" vertex="1">
          <mxGeometry x="521.5" y="600" width="170" height="40" as="geometry" />
        </mxCell>
        <mxCell id="CMSNJL8uuIETDpdzAiZ_-68" value="Data Access Object" style="rounded=0;whiteSpace=wrap;html=1;fontSize=17;fontStyle=1;fillColor=#f8cecc;strokeColor=#b85450;" parent="1" vertex="1">
          <mxGeometry x="370" y="990" width="200" height="40" as="geometry" />
        </mxCell>
        <mxCell id="CMSNJL8uuIETDpdzAiZ_-70" value="Factory Method" style="rounded=0;whiteSpace=wrap;html=1;fontSize=17;fontStyle=1;fillColor=#dae8fc;strokeColor=#6c8ebf;" parent="1" vertex="1">
          <mxGeometry x="2150" y="990" width="170" height="40" as="geometry" />
        </mxCell>
        <mxCell id="CMSNJL8uuIETDpdzAiZ_-72" value="Models" style="rounded=0;whiteSpace=wrap;html=1;fontSize=17;fontStyle=1;fillColor=#d5e8d4;strokeColor=#82b366;" parent="1" vertex="1">
          <mxGeometry x="1395" y="1467.5" width="170" height="40" as="geometry" />
        </mxCell>
      </root>
    </mxGraphModel>
  </diagram>
  <diagram name="Diagrama" id="bcbFAgPC_eH4TdF6SsQv">
    <mxGraphModel dx="3447" dy="2013" grid="1" gridSize="10" guides="1" tooltips="1" connect="1" arrows="1" fold="1" page="1" pageScale="1" pageWidth="827" pageHeight="1169" math="0" shadow="0">
      <root>
        <mxCell id="4gsxIcYw75Fd4xq6zIQA-0" />
        <mxCell id="4gsxIcYw75Fd4xq6zIQA-1" parent="4gsxIcYw75Fd4xq6zIQA-0" />
        <mxCell id="4gsxIcYw75Fd4xq6zIQA-7" value="Bombona" style="rounded=0;whiteSpace=wrap;html=1;" vertex="1" parent="4gsxIcYw75Fd4xq6zIQA-1">
          <mxGeometry x="1225" y="1528" width="275" height="60" as="geometry" />
        </mxCell>
        <mxCell id="4gsxIcYw75Fd4xq6zIQA-8" value="- codigo: String&lt;div&gt;- volume: double&lt;/div&gt;&lt;div&gt;- tipoResiduo: String&lt;/div&gt;&lt;div&gt;- responsavel: Responsavel&lt;/div&gt;" style="rounded=0;whiteSpace=wrap;html=1;align=left;labelPosition=center;verticalLabelPosition=middle;verticalAlign=middle;" vertex="1" parent="4gsxIcYw75Fd4xq6zIQA-1">
          <mxGeometry x="1225" y="1588" width="275" height="70" as="geometry" />
        </mxCell>
        <mxCell id="4gsxIcYw75Fd4xq6zIQA-9" value="+ getCodigo(): String&lt;div&gt;+ getVolume(): double&lt;/div&gt;&lt;div&gt;+ getTipoResiduo(): String&lt;/div&gt;&lt;div&gt;+ getResponsavel(): Responsavel&lt;/div&gt;&lt;div&gt;+ setCodigo(novoCod: String): void&lt;div&gt;+ setVolume(novoVol: double): void&lt;/div&gt;&lt;div&gt;+ setTipoResiduo(novoTipo: String): void&lt;/div&gt;&lt;/div&gt;&lt;div&gt;+ setResponsavel(novoResp: Responsavel): void&lt;/div&gt;" style="rounded=0;whiteSpace=wrap;html=1;align=left;" vertex="1" parent="4gsxIcYw75Fd4xq6zIQA-1">
          <mxGeometry x="1225" y="1658" width="275" height="145" as="geometry" />
        </mxCell>
        <mxCell id="4gsxIcYw75Fd4xq6zIQA-10" value="Responsavel" style="rounded=0;whiteSpace=wrap;html=1;" vertex="1" parent="4gsxIcYw75Fd4xq6zIQA-1">
          <mxGeometry x="1525" y="1713" width="215" height="60" as="geometry" />
        </mxCell>
        <mxCell id="4gsxIcYw75Fd4xq6zIQA-11" value="- cpf: String&lt;div&gt;- nome: String&lt;/div&gt;&lt;div&gt;- telefone: String&lt;/div&gt;&lt;div&gt;- setor: String&lt;/div&gt;" style="rounded=0;whiteSpace=wrap;html=1;align=left;labelPosition=center;verticalLabelPosition=middle;verticalAlign=middle;" vertex="1" parent="4gsxIcYw75Fd4xq6zIQA-1">
          <mxGeometry x="1525" y="1773" width="215" height="70" as="geometry" />
        </mxCell>
        <mxCell id="4gsxIcYw75Fd4xq6zIQA-12" value="+ getCPF(): String&lt;div&gt;+ getNome(): String&lt;/div&gt;&lt;div&gt;+ getTelefone(): String&lt;/div&gt;&lt;div&gt;+ getSetor(): String&lt;/div&gt;&lt;div&gt;+ setCPF(novoCPF: String): void&lt;div&gt;+ setNome(novoNome: String): void&lt;/div&gt;&lt;div&gt;+ setTelefone(novoTel: String): void&lt;/div&gt;&lt;div&gt;+ setSetor(novoSetor: String): void&lt;/div&gt;&lt;/div&gt;" style="rounded=0;whiteSpace=wrap;html=1;align=left;" vertex="1" parent="4gsxIcYw75Fd4xq6zIQA-1">
          <mxGeometry x="1525" y="1843" width="215" height="150" as="geometry" />
        </mxCell>
        <mxCell id="4gsxIcYw75Fd4xq6zIQA-13" style="edgeStyle=orthogonalEdgeStyle;rounded=0;orthogonalLoop=1;jettySize=auto;html=1;entryX=0.5;entryY=1;entryDx=0;entryDy=0;endArrow=block;endFill=0;dashed=1;dashPattern=8 8;" edge="1" parent="4gsxIcYw75Fd4xq6zIQA-1" source="4gsxIcYw75Fd4xq6zIQA-14" target="4gsxIcYw75Fd4xq6zIQA-59">
          <mxGeometry relative="1" as="geometry" />
        </mxCell>
        <mxCell id="4gsxIcYw75Fd4xq6zIQA-14" value="BombonaDAO" style="rounded=0;whiteSpace=wrap;html=1;" vertex="1" parent="4gsxIcYw75Fd4xq6zIQA-1">
          <mxGeometry x="671" y="1410" width="330" height="60" as="geometry" />
        </mxCell>
        <mxCell id="4gsxIcYw75Fd4xq6zIQA-15" value="- bombonas: List&amp;lt;Bombona&amp;gt;" style="rounded=0;whiteSpace=wrap;html=1;align=left;labelPosition=center;verticalLabelPosition=middle;verticalAlign=middle;" vertex="1" parent="4gsxIcYw75Fd4xq6zIQA-1">
          <mxGeometry x="671" y="1470" width="330" height="35" as="geometry" />
        </mxCell>
        <mxCell id="4gsxIcYw75Fd4xq6zIQA-16" style="rounded=0;orthogonalLoop=1;jettySize=auto;html=1;edgeStyle=orthogonalEdgeStyle;endArrow=none;endFill=0;strokeWidth=1;targetPerimeterSpacing=0;entryX=0.005;entryY=0.357;entryDx=0;entryDy=0;startArrow=diamond;startFill=0;entryPerimeter=0;" edge="1" parent="4gsxIcYw75Fd4xq6zIQA-1" source="4gsxIcYw75Fd4xq6zIQA-17" target="4gsxIcYw75Fd4xq6zIQA-9">
          <mxGeometry relative="1" as="geometry">
            <mxPoint x="1160" y="1650" as="targetPoint" />
            <Array as="points">
              <mxPoint x="836" y="1710" />
            </Array>
          </mxGeometry>
        </mxCell>
        <mxCell id="4gsxIcYw75Fd4xq6zIQA-17" value="+ salvar(b: Bombona): void&lt;div&gt;+ listarTodas(): List&amp;lt;Bombona&amp;gt;&lt;/div&gt;&lt;div&gt;+ buscarPorCodigo(codigo: String): Bombona&lt;/div&gt;&lt;div&gt;+ buscarPorResponsavel(cpf: String): List&amp;lt;Bombona&amp;gt;&lt;/div&gt;&lt;div&gt;+ remover(b: Bombona): void&lt;/div&gt;&lt;div&gt;+ atualizar(b: Bombona): void&lt;/div&gt;&lt;div&gt;+ existeCodigo(codigo: String): boolean&lt;/div&gt;" style="rounded=0;whiteSpace=wrap;html=1;align=left;" vertex="1" parent="4gsxIcYw75Fd4xq6zIQA-1">
          <mxGeometry x="671" y="1505" width="330" height="120" as="geometry" />
        </mxCell>
        <mxCell id="4gsxIcYw75Fd4xq6zIQA-18" style="edgeStyle=orthogonalEdgeStyle;rounded=0;orthogonalLoop=1;jettySize=auto;html=1;entryX=0.5;entryY=1;entryDx=0;entryDy=0;endArrow=block;endFill=0;dashed=1;dashPattern=8 8;" edge="1" parent="4gsxIcYw75Fd4xq6zIQA-1" source="4gsxIcYw75Fd4xq6zIQA-19" target="4gsxIcYw75Fd4xq6zIQA-63">
          <mxGeometry relative="1" as="geometry" />
        </mxCell>
        <mxCell id="4gsxIcYw75Fd4xq6zIQA-19" value="ResponsavelDAO" style="rounded=0;whiteSpace=wrap;html=1;" vertex="1" parent="4gsxIcYw75Fd4xq6zIQA-1">
          <mxGeometry x="390" y="1410" width="260" height="60" as="geometry" />
        </mxCell>
        <mxCell id="4gsxIcYw75Fd4xq6zIQA-20" value="- responsaveis: List&amp;lt;Responsavel&amp;gt;" style="rounded=0;whiteSpace=wrap;html=1;align=left;labelPosition=center;verticalLabelPosition=middle;verticalAlign=middle;" vertex="1" parent="4gsxIcYw75Fd4xq6zIQA-1">
          <mxGeometry x="390" y="1470" width="260" height="35" as="geometry" />
        </mxCell>
        <mxCell id="4gsxIcYw75Fd4xq6zIQA-21" style="edgeStyle=orthogonalEdgeStyle;rounded=0;orthogonalLoop=1;jettySize=auto;html=1;endArrow=none;endFill=0;startArrow=diamond;startFill=0;entryX=-0.002;entryY=0.121;entryDx=0;entryDy=0;entryPerimeter=0;" edge="1" parent="4gsxIcYw75Fd4xq6zIQA-1" source="4gsxIcYw75Fd4xq6zIQA-22" target="4gsxIcYw75Fd4xq6zIQA-12">
          <mxGeometry relative="1" as="geometry">
            <mxPoint x="1520" y="1950" as="targetPoint" />
            <Array as="points">
              <mxPoint x="520" y="1860" />
              <mxPoint x="1525" y="1860" />
            </Array>
          </mxGeometry>
        </mxCell>
        <mxCell id="4gsxIcYw75Fd4xq6zIQA-22" value="+ salvar(b: Responsavel): void&lt;div&gt;+ listarTodos(): List&amp;lt;Responsavel&amp;gt;&lt;/div&gt;&lt;div&gt;+ buscarPorCPF(cpf: String): Responsavel&lt;/div&gt;&lt;div&gt;+ remover(r: Responsavel): void&lt;/div&gt;&lt;div&gt;+ atualizar(r: Responsavel): void&lt;/div&gt;&lt;div&gt;+ existeCPF(cpf: String): boolean&lt;/div&gt;" style="rounded=0;whiteSpace=wrap;html=1;align=left;" vertex="1" parent="4gsxIcYw75Fd4xq6zIQA-1">
          <mxGeometry x="390" y="1505" width="260" height="110" as="geometry" />
        </mxCell>
        <mxCell id="4gsxIcYw75Fd4xq6zIQA-23" style="edgeStyle=orthogonalEdgeStyle;rounded=0;orthogonalLoop=1;jettySize=auto;html=1;entryX=0.75;entryY=1;entryDx=0;entryDy=0;endArrow=diamond;endFill=1;" edge="1" parent="4gsxIcYw75Fd4xq6zIQA-1" source="4gsxIcYw75Fd4xq6zIQA-24" target="4gsxIcYw75Fd4xq6zIQA-35">
          <mxGeometry relative="1" as="geometry">
            <Array as="points">
              <mxPoint x="1470" y="990" />
              <mxPoint x="1055" y="990" />
            </Array>
          </mxGeometry>
        </mxCell>
        <mxCell id="4gsxIcYw75Fd4xq6zIQA-24" value="BombonaFactory" style="rounded=0;whiteSpace=wrap;html=1;" vertex="1" parent="4gsxIcYw75Fd4xq6zIQA-1">
          <mxGeometry x="1180" y="1060" width="580" height="60" as="geometry" />
        </mxCell>
        <mxCell id="4gsxIcYw75Fd4xq6zIQA-25" value="" style="rounded=0;whiteSpace=wrap;html=1;align=left;labelPosition=center;verticalLabelPosition=middle;verticalAlign=middle;" vertex="1" parent="4gsxIcYw75Fd4xq6zIQA-1">
          <mxGeometry x="1180" y="1120" width="580" height="10" as="geometry" />
        </mxCell>
        <mxCell id="4gsxIcYw75Fd4xq6zIQA-26" style="edgeStyle=orthogonalEdgeStyle;rounded=0;orthogonalLoop=1;jettySize=auto;html=1;entryX=0.5;entryY=0;entryDx=0;entryDy=0;dashed=1;endArrow=block;endFill=1;dashPattern=8 8;" edge="1" parent="4gsxIcYw75Fd4xq6zIQA-1" source="4gsxIcYw75Fd4xq6zIQA-27" target="4gsxIcYw75Fd4xq6zIQA-7">
          <mxGeometry relative="1" as="geometry">
            <Array as="points">
              <mxPoint x="1470" y="1350" />
              <mxPoint x="1363" y="1350" />
              <mxPoint x="1363" y="1528" />
            </Array>
          </mxGeometry>
        </mxCell>
        <mxCell id="4gsxIcYw75Fd4xq6zIQA-27" value="+ criarBombona(codigo: String, volume: double, tipoResiduo: String, responsavel: Responsavel): Bombona&lt;div&gt;- validarCodigo(codigo: String): boolean&lt;/div&gt;&lt;div&gt;- validarVolume(volume: double): boolean&lt;/div&gt;&lt;div&gt;- validarTipoResiduo(tipoResiduo: String): boolean&lt;/div&gt;" style="rounded=0;whiteSpace=wrap;html=1;align=left;" vertex="1" parent="4gsxIcYw75Fd4xq6zIQA-1">
          <mxGeometry x="1180" y="1130" width="580" height="100" as="geometry" />
        </mxCell>
        <mxCell id="4gsxIcYw75Fd4xq6zIQA-28" style="edgeStyle=orthogonalEdgeStyle;rounded=0;orthogonalLoop=1;jettySize=auto;html=1;entryX=1;entryY=0.25;entryDx=0;entryDy=0;endArrow=diamond;endFill=1;" edge="1" parent="4gsxIcYw75Fd4xq6zIQA-1" source="4gsxIcYw75Fd4xq6zIQA-29" target="4gsxIcYw75Fd4xq6zIQA-38">
          <mxGeometry relative="1" as="geometry" />
        </mxCell>
        <mxCell id="4gsxIcYw75Fd4xq6zIQA-29" value="ResponsavelFactory" style="rounded=0;whiteSpace=wrap;html=1;" vertex="1" parent="4gsxIcYw75Fd4xq6zIQA-1">
          <mxGeometry x="1810" y="1060" width="480" height="60" as="geometry" />
        </mxCell>
        <mxCell id="4gsxIcYw75Fd4xq6zIQA-30" value="" style="rounded=0;whiteSpace=wrap;html=1;align=left;labelPosition=center;verticalLabelPosition=middle;verticalAlign=middle;" vertex="1" parent="4gsxIcYw75Fd4xq6zIQA-1">
          <mxGeometry x="1810" y="1120" width="480" height="10" as="geometry" />
        </mxCell>
        <mxCell id="4gsxIcYw75Fd4xq6zIQA-31" style="edgeStyle=orthogonalEdgeStyle;rounded=0;orthogonalLoop=1;jettySize=auto;html=1;entryX=0.5;entryY=0;entryDx=0;entryDy=0;dashed=1;dashPattern=8 8;endArrow=block;endFill=1;" edge="1" parent="4gsxIcYw75Fd4xq6zIQA-1" source="4gsxIcYw75Fd4xq6zIQA-32" target="4gsxIcYw75Fd4xq6zIQA-10">
          <mxGeometry relative="1" as="geometry">
            <Array as="points">
              <mxPoint x="2050" y="1430" />
              <mxPoint x="1633" y="1430" />
              <mxPoint x="1633" y="1713" />
            </Array>
          </mxGeometry>
        </mxCell>
        <mxCell id="4gsxIcYw75Fd4xq6zIQA-32" value="+ criarResponsavel(cpf: String, nome: String, telefone: String, setor: String): Responsavel&lt;div&gt;- validarCPF(cpf: String): boolean&lt;br&gt;&lt;/div&gt;&lt;div&gt;- validarNome(nome: String): boolean&lt;/div&gt;&lt;div&gt;- validarTelefone(nome: String): boolean&lt;/div&gt;&lt;div&gt;- validarSetor(setor: String): boolean&lt;/div&gt;" style="rounded=0;whiteSpace=wrap;html=1;align=left;" vertex="1" parent="4gsxIcYw75Fd4xq6zIQA-1">
          <mxGeometry x="1810" y="1130" width="480" height="110" as="geometry" />
        </mxCell>
        <mxCell id="4gsxIcYw75Fd4xq6zIQA-33" value="BombonaController" style="rounded=0;whiteSpace=wrap;html=1;" vertex="1" parent="4gsxIcYw75Fd4xq6zIQA-1">
          <mxGeometry x="560" y="660" width="660" height="60" as="geometry" />
        </mxCell>
        <mxCell id="4gsxIcYw75Fd4xq6zIQA-34" value="- bombonaDAOI: BombonaDAOInterface&lt;div&gt;- bombonaFactory: BombonaFactory&lt;/div&gt;&lt;div&gt;- responsavelDAOI: ResponsavelDAOInterface&lt;/div&gt;" style="rounded=0;whiteSpace=wrap;html=1;align=left;labelPosition=center;verticalLabelPosition=middle;verticalAlign=middle;" vertex="1" parent="4gsxIcYw75Fd4xq6zIQA-1">
          <mxGeometry x="560" y="720" width="660" height="50" as="geometry" />
        </mxCell>
        <mxCell id="4gsxIcYw75Fd4xq6zIQA-35" value="+ cadastrarBombona(codigo: String, volume: double, tipoResiduo: String, cpf: String): boolean&lt;div&gt;- validarEFormatarCPF(cpf: String): String&lt;br&gt;&lt;div&gt;+ listarBombonas(): List&amp;lt;Bombona&amp;gt;&lt;/div&gt;&lt;div&gt;+ removerBombona(codigo: String): boolean&lt;/div&gt;&lt;div&gt;+ editarBombona(codigo: String, novoVolume: double, novoTipoResiduo: String, cpfResponsavel: String): boolean&lt;/div&gt;&lt;div&gt;+ gerarRelatorio(): Arquivo&lt;/div&gt;&lt;div&gt;+ buscarBombonasPorCPFResponsavel(cpf: String): List&amp;lt;Bombona&amp;gt;&lt;/div&gt;&lt;/div&gt;" style="rounded=0;whiteSpace=wrap;html=1;align=left;" vertex="1" parent="4gsxIcYw75Fd4xq6zIQA-1">
          <mxGeometry x="560" y="770" width="660" height="130" as="geometry" />
        </mxCell>
        <mxCell id="4gsxIcYw75Fd4xq6zIQA-36" value="ResponsavelController" style="rounded=0;whiteSpace=wrap;html=1;" vertex="1" parent="4gsxIcYw75Fd4xq6zIQA-1">
          <mxGeometry x="1280" y="660" width="580" height="60" as="geometry" />
        </mxCell>
        <mxCell id="4gsxIcYw75Fd4xq6zIQA-37" value="- responsavelDAOI: ResponsavelDAOInterface&lt;div&gt;- responsavelFactory: ResponsavelFactory&lt;/div&gt;&lt;div&gt;- bombonaDAOI: BombonaDAOInterface&lt;/div&gt;" style="rounded=0;whiteSpace=wrap;html=1;align=left;labelPosition=center;verticalLabelPosition=middle;verticalAlign=middle;" vertex="1" parent="4gsxIcYw75Fd4xq6zIQA-1">
          <mxGeometry x="1280" y="720" width="580" height="60" as="geometry" />
        </mxCell>
        <mxCell id="4gsxIcYw75Fd4xq6zIQA-38" value="+ cadastrarResponsavel(cpf: String, nome: String, telefone: String, setor: String): boolean&lt;div&gt;+ listarResponsaveis(): List&amp;lt;Responsavel&amp;gt;&lt;/div&gt;&lt;div&gt;+ removerResponsavel(cpf: String): boolean&lt;/div&gt;&lt;div&gt;+ editarResponsavel(cpf: String, novoNome: String, novoTelefone: String, novoSetor: String): boolean&lt;/div&gt;&lt;div&gt;+ buscarResponsavel(cpf: String): Responsavel&lt;/div&gt;" style="rounded=0;whiteSpace=wrap;html=1;align=left;" vertex="1" parent="4gsxIcYw75Fd4xq6zIQA-1">
          <mxGeometry x="1280" y="780" width="580" height="100" as="geometry" />
        </mxCell>
        <mxCell id="4gsxIcYw75Fd4xq6zIQA-39" value="TelaRelatorio" style="rounded=0;whiteSpace=wrap;html=1;" vertex="1" parent="4gsxIcYw75Fd4xq6zIQA-1">
          <mxGeometry x="612" y="370" width="213" height="60" as="geometry" />
        </mxCell>
        <mxCell id="4gsxIcYw75Fd4xq6zIQA-40" value="- controller: BombonaController" style="rounded=0;whiteSpace=wrap;html=1;align=left;labelPosition=center;verticalLabelPosition=middle;verticalAlign=middle;" vertex="1" parent="4gsxIcYw75Fd4xq6zIQA-1">
          <mxGeometry x="612" y="430" width="213" height="40" as="geometry" />
        </mxCell>
        <mxCell id="4gsxIcYw75Fd4xq6zIQA-41" style="edgeStyle=orthogonalEdgeStyle;rounded=0;orthogonalLoop=1;jettySize=auto;html=1;entryX=0.5;entryY=0;entryDx=0;entryDy=0;dashed=1;endArrow=block;endFill=1;dashPattern=8 8;" edge="1" parent="4gsxIcYw75Fd4xq6zIQA-1" source="4gsxIcYw75Fd4xq6zIQA-42" target="4gsxIcYw75Fd4xq6zIQA-33">
          <mxGeometry relative="1" as="geometry" />
        </mxCell>
        <mxCell id="4gsxIcYw75Fd4xq6zIQA-42" value="+ exibirTela(): void&lt;div&gt;- gerarRelatorioCSV(): void&lt;/div&gt;&lt;div&gt;- gerarRelatorioPDF(): void&lt;/div&gt;" style="rounded=0;whiteSpace=wrap;html=1;align=left;" vertex="1" parent="4gsxIcYw75Fd4xq6zIQA-1">
          <mxGeometry x="612" y="470" width="213" height="70" as="geometry" />
        </mxCell>
        <mxCell id="4gsxIcYw75Fd4xq6zIQA-43" value="TelaListagemBombonas" style="rounded=0;whiteSpace=wrap;html=1;" vertex="1" parent="4gsxIcYw75Fd4xq6zIQA-1">
          <mxGeometry x="855" y="370" width="225" height="60" as="geometry" />
        </mxCell>
        <mxCell id="4gsxIcYw75Fd4xq6zIQA-44" value="- controller: BombonaController" style="rounded=0;whiteSpace=wrap;html=1;align=left;labelPosition=center;verticalLabelPosition=middle;verticalAlign=middle;" vertex="1" parent="4gsxIcYw75Fd4xq6zIQA-1">
          <mxGeometry x="855" y="430" width="225" height="40" as="geometry" />
        </mxCell>
        <mxCell id="4gsxIcYw75Fd4xq6zIQA-45" value="+ exibirLista(): void&lt;div&gt;- editarBombona(codigo: String): void&lt;br&gt;&lt;div&gt;- excluirBombona(codigo: String): void&lt;/div&gt;&lt;/div&gt;" style="rounded=0;whiteSpace=wrap;html=1;align=left;" vertex="1" parent="4gsxIcYw75Fd4xq6zIQA-1">
          <mxGeometry x="855" y="470" width="225" height="70" as="geometry" />
        </mxCell>
        <mxCell id="4gsxIcYw75Fd4xq6zIQA-46" value="TelaCadastroBombona" style="rounded=0;whiteSpace=wrap;html=1;" vertex="1" parent="4gsxIcYw75Fd4xq6zIQA-1">
          <mxGeometry x="1105" y="370" width="213" height="60" as="geometry" />
        </mxCell>
        <mxCell id="4gsxIcYw75Fd4xq6zIQA-47" value="- controller: BombonaController" style="rounded=0;whiteSpace=wrap;html=1;align=left;labelPosition=center;verticalLabelPosition=middle;verticalAlign=middle;" vertex="1" parent="4gsxIcYw75Fd4xq6zIQA-1">
          <mxGeometry x="1105" y="430" width="213" height="40" as="geometry" />
        </mxCell>
        <mxCell id="4gsxIcYw75Fd4xq6zIQA-48" style="edgeStyle=orthogonalEdgeStyle;rounded=0;orthogonalLoop=1;jettySize=auto;html=1;entryX=0.75;entryY=0;entryDx=0;entryDy=0;dashed=1;endArrow=block;endFill=1;dashPattern=8 8;" edge="1" parent="4gsxIcYw75Fd4xq6zIQA-1" source="4gsxIcYw75Fd4xq6zIQA-49" target="4gsxIcYw75Fd4xq6zIQA-33">
          <mxGeometry relative="1" as="geometry">
            <Array as="points">
              <mxPoint x="1212" y="600" />
              <mxPoint x="1055" y="600" />
            </Array>
          </mxGeometry>
        </mxCell>
        <mxCell id="4gsxIcYw75Fd4xq6zIQA-49" value="+ exibirFormulario(): void&lt;div&gt;- cadastrarBombona(): void&lt;/div&gt;" style="rounded=0;whiteSpace=wrap;html=1;align=left;" vertex="1" parent="4gsxIcYw75Fd4xq6zIQA-1">
          <mxGeometry x="1105" y="470" width="213" height="60" as="geometry" />
        </mxCell>
        <mxCell id="4gsxIcYw75Fd4xq6zIQA-50" value="TelaCadastroResponsavel" style="rounded=0;whiteSpace=wrap;html=1;" vertex="1" parent="4gsxIcYw75Fd4xq6zIQA-1">
          <mxGeometry x="1353.5" y="370" width="213" height="60" as="geometry" />
        </mxCell>
        <mxCell id="4gsxIcYw75Fd4xq6zIQA-51" value="- controller: ResponsavelController" style="rounded=0;whiteSpace=wrap;html=1;align=left;labelPosition=center;verticalLabelPosition=middle;verticalAlign=middle;" vertex="1" parent="4gsxIcYw75Fd4xq6zIQA-1">
          <mxGeometry x="1353.5" y="430" width="213" height="40" as="geometry" />
        </mxCell>
        <mxCell id="4gsxIcYw75Fd4xq6zIQA-52" value="+ exibirFormulario(): void&lt;div&gt;- cadastrarResponsavel(): void&lt;/div&gt;" style="rounded=0;whiteSpace=wrap;html=1;align=left;" vertex="1" parent="4gsxIcYw75Fd4xq6zIQA-1">
          <mxGeometry x="1353.5" y="470" width="213" height="60" as="geometry" />
        </mxCell>
        <mxCell id="4gsxIcYw75Fd4xq6zIQA-53" value="TelaListagemResponsaveis" style="rounded=0;whiteSpace=wrap;html=1;" vertex="1" parent="4gsxIcYw75Fd4xq6zIQA-1">
          <mxGeometry x="1605" y="370" width="225" height="60" as="geometry" />
        </mxCell>
        <mxCell id="4gsxIcYw75Fd4xq6zIQA-54" value="- controller: ResponsavelController" style="rounded=0;whiteSpace=wrap;html=1;align=left;labelPosition=center;verticalLabelPosition=middle;verticalAlign=middle;" vertex="1" parent="4gsxIcYw75Fd4xq6zIQA-1">
          <mxGeometry x="1605" y="430" width="225" height="40" as="geometry" />
        </mxCell>
        <mxCell id="4gsxIcYw75Fd4xq6zIQA-55" style="edgeStyle=orthogonalEdgeStyle;rounded=0;orthogonalLoop=1;jettySize=auto;html=1;dashed=1;endArrow=block;endFill=1;dashPattern=8 8;" edge="1" parent="4gsxIcYw75Fd4xq6zIQA-1" source="4gsxIcYw75Fd4xq6zIQA-56" target="4gsxIcYw75Fd4xq6zIQA-36">
          <mxGeometry relative="1" as="geometry" />
        </mxCell>
        <mxCell id="4gsxIcYw75Fd4xq6zIQA-56" value="+ exibirLista(): void&lt;div&gt;- editarResponsavel(cpf: String): void&lt;br&gt;&lt;div&gt;- excluirResponsavel(cpf: String): void&lt;/div&gt;&lt;/div&gt;" style="rounded=0;whiteSpace=wrap;html=1;align=left;" vertex="1" parent="4gsxIcYw75Fd4xq6zIQA-1">
          <mxGeometry x="1605" y="470" width="225" height="70" as="geometry" />
        </mxCell>
        <mxCell id="4gsxIcYw75Fd4xq6zIQA-57" value="BombonaDAOInterface" style="rounded=0;whiteSpace=wrap;html=1;" vertex="1" parent="4gsxIcYw75Fd4xq6zIQA-1">
          <mxGeometry x="821" y="1060" width="330" height="60" as="geometry" />
        </mxCell>
        <mxCell id="4gsxIcYw75Fd4xq6zIQA-58" value="" style="rounded=0;whiteSpace=wrap;html=1;align=left;labelPosition=center;verticalLabelPosition=middle;verticalAlign=middle;" vertex="1" parent="4gsxIcYw75Fd4xq6zIQA-1">
          <mxGeometry x="821" y="1120" width="330" height="10" as="geometry" />
        </mxCell>
        <mxCell id="4gsxIcYw75Fd4xq6zIQA-59" value="+ salvar(b: Bombona): void&lt;div&gt;+ listarTodas(): List&amp;lt;Bombona&amp;gt;&lt;/div&gt;&lt;div&gt;+ buscarPorCodigo(codigo: String): Bombona&lt;/div&gt;&lt;div&gt;+ buscarPorResponsavel(cpf: String): List&amp;lt;Bombona&amp;gt;&lt;/div&gt;&lt;div&gt;+ remover(b: Bombona): void&lt;/div&gt;&lt;div&gt;+ atualizar(b: Bombona): void&lt;/div&gt;&lt;div&gt;+ existeCodigo(codigo: String): boolean&lt;/div&gt;" style="rounded=0;whiteSpace=wrap;html=1;align=left;" vertex="1" parent="4gsxIcYw75Fd4xq6zIQA-1">
          <mxGeometry x="821" y="1130" width="330" height="120" as="geometry" />
        </mxCell>
        <mxCell id="4gsxIcYw75Fd4xq6zIQA-60" style="edgeStyle=orthogonalEdgeStyle;rounded=0;orthogonalLoop=1;jettySize=auto;html=1;entryX=0.25;entryY=1;entryDx=0;entryDy=0;endArrow=diamond;endFill=1;" edge="1" parent="4gsxIcYw75Fd4xq6zIQA-1" source="4gsxIcYw75Fd4xq6zIQA-61" target="4gsxIcYw75Fd4xq6zIQA-35">
          <mxGeometry relative="1" as="geometry">
            <Array as="points">
              <mxPoint x="610" y="950" />
              <mxPoint x="725" y="950" />
            </Array>
          </mxGeometry>
        </mxCell>
        <mxCell id="4gsxIcYw75Fd4xq6zIQA-61" value="ResponsavelDAOInterface" style="rounded=0;whiteSpace=wrap;html=1;" vertex="1" parent="4gsxIcYw75Fd4xq6zIQA-1">
          <mxGeometry x="540" y="1060" width="260" height="60" as="geometry" />
        </mxCell>
        <mxCell id="4gsxIcYw75Fd4xq6zIQA-62" value="" style="rounded=0;whiteSpace=wrap;html=1;align=left;labelPosition=center;verticalLabelPosition=middle;verticalAlign=middle;" vertex="1" parent="4gsxIcYw75Fd4xq6zIQA-1">
          <mxGeometry x="540" y="1120" width="260" height="10" as="geometry" />
        </mxCell>
        <mxCell id="4gsxIcYw75Fd4xq6zIQA-63" value="+ salvar(b: Responsavel): void&lt;div&gt;+ listarTodos(): List&amp;lt;Responsavel&amp;gt;&lt;/div&gt;&lt;div&gt;+ buscarPorCPF(cpf: String): Responsavel&lt;/div&gt;&lt;div&gt;+ remover(r: Responsavel): void&lt;/div&gt;&lt;div&gt;+ atualizar(r: Responsavel): void&lt;/div&gt;&lt;div&gt;+ existeCPF(cpf: String): boolean&lt;/div&gt;" style="rounded=0;whiteSpace=wrap;html=1;align=left;" vertex="1" parent="4gsxIcYw75Fd4xq6zIQA-1">
          <mxGeometry x="540" y="1130" width="260" height="110" as="geometry" />
        </mxCell>
        <mxCell id="4gsxIcYw75Fd4xq6zIQA-64" style="edgeStyle=orthogonalEdgeStyle;rounded=0;orthogonalLoop=1;jettySize=auto;html=1;dashed=1;endArrow=block;endFill=1;entryX=0.587;entryY=0.006;entryDx=0;entryDy=0;entryPerimeter=0;dashPattern=8 8;" edge="1" parent="4gsxIcYw75Fd4xq6zIQA-1" source="4gsxIcYw75Fd4xq6zIQA-45" target="4gsxIcYw75Fd4xq6zIQA-33">
          <mxGeometry relative="1" as="geometry">
            <mxPoint x="890" y="640" as="targetPoint" />
          </mxGeometry>
        </mxCell>
        <mxCell id="4gsxIcYw75Fd4xq6zIQA-65" style="edgeStyle=orthogonalEdgeStyle;rounded=0;orthogonalLoop=1;jettySize=auto;html=1;dashed=1;endArrow=block;endFill=1;exitX=0.5;exitY=1;exitDx=0;exitDy=0;dashPattern=8 8;" edge="1" parent="4gsxIcYw75Fd4xq6zIQA-1" source="4gsxIcYw75Fd4xq6zIQA-52">
          <mxGeometry relative="1" as="geometry">
            <mxPoint x="1460" y="510" as="sourcePoint" />
            <mxPoint x="1540" y="660" as="targetPoint" />
            <Array as="points">
              <mxPoint x="1460" y="600" />
              <mxPoint x="1540" y="600" />
            </Array>
          </mxGeometry>
        </mxCell>
        <mxCell id="4gsxIcYw75Fd4xq6zIQA-66" style="edgeStyle=orthogonalEdgeStyle;rounded=0;orthogonalLoop=1;jettySize=auto;html=1;endArrow=diamond;endFill=1;" edge="1" parent="4gsxIcYw75Fd4xq6zIQA-1" source="4gsxIcYw75Fd4xq6zIQA-57">
          <mxGeometry relative="1" as="geometry">
            <mxPoint x="1525" y="880" as="targetPoint" />
            <Array as="points">
              <mxPoint x="986" y="1010" />
              <mxPoint x="1525" y="1010" />
            </Array>
          </mxGeometry>
        </mxCell>
        <mxCell id="4gsxIcYw75Fd4xq6zIQA-67" style="edgeStyle=orthogonalEdgeStyle;rounded=0;orthogonalLoop=1;jettySize=auto;html=1;entryX=0.633;entryY=1.007;entryDx=0;entryDy=0;entryPerimeter=0;endArrow=diamond;endFill=1;" edge="1" parent="4gsxIcYw75Fd4xq6zIQA-1" source="4gsxIcYw75Fd4xq6zIQA-61" target="4gsxIcYw75Fd4xq6zIQA-38">
          <mxGeometry relative="1" as="geometry">
            <Array as="points">
              <mxPoint x="670" y="970" />
              <mxPoint x="1647" y="970" />
            </Array>
          </mxGeometry>
        </mxCell>
        <mxCell id="4gsxIcYw75Fd4xq6zIQA-68" style="edgeStyle=orthogonalEdgeStyle;rounded=0;orthogonalLoop=1;jettySize=auto;html=1;endArrow=diamond;endFill=1;entryX=0.5;entryY=1;entryDx=0;entryDy=0;" edge="1" parent="4gsxIcYw75Fd4xq6zIQA-1" source="4gsxIcYw75Fd4xq6zIQA-57" target="4gsxIcYw75Fd4xq6zIQA-35">
          <mxGeometry relative="1" as="geometry">
            <mxPoint x="870" y="920" as="targetPoint" />
            <Array as="points">
              <mxPoint x="940" y="990" />
              <mxPoint x="890" y="990" />
            </Array>
          </mxGeometry>
        </mxCell>
      </root>
    </mxGraphModel>
  </diagram>
</mxfile>
